<svg width="206" height="36" viewBox="0 0 206 36" fill="none" xmlns="http://www.w3.org/2000/svg">
<path d="M18.3424 10.0148V13.3694C18.3424 13.5615 18.4981 13.7192 18.6922 13.7192H21.4361C21.6282 13.7192 21.786 13.8749 21.786 14.0691V16.8292C21.786 17.0213 21.9417 17.179 22.1358 17.179H28.1333C29.7328 17.179 31.0309 18.4752 31.0309 20.0767V21.3668C31.0309 22.9662 29.7348 24.2644 28.1333 24.2644H24.2428C24.0507 24.2644 23.893 24.4201 23.893 24.6142V27.983C23.893 28.1751 24.0487 28.3329 24.2428 28.3329H28.103C31.949 28.3329 35.067 25.2148 35.067 21.3688V20.0787C35.067 16.2327 31.949 13.1146 28.103 13.1146H22.7444C22.5523 13.1146 22.3946 12.9589 22.3946 12.7648V10.0208C22.3946 9.82875 22.2389 9.67103 22.0448 9.67103H18.6902C18.4981 9.67103 18.3403 9.82673 18.3403 10.0208L18.3424 10.0148Z" fill="#A14CFF"/>
<path d="M25.5187 18.8088H22.1641C21.972 18.8088 21.8143 18.9645 21.8143 19.1587V21.9026C21.8143 22.0947 21.6586 22.2524 21.4644 22.2524H18.7043C18.5122 22.2524 18.3545 22.4081 18.3545 22.6023V28.5998C18.3545 30.1992 17.0583 31.4974 15.4568 31.4974H14.1667C12.5673 31.4974 11.2691 30.2013 11.2691 28.5998V24.7093C11.2691 24.5172 11.1134 24.3595 10.9193 24.3595H7.55047C7.35838 24.3595 7.20065 24.5152 7.20065 24.7093V28.5694C7.20065 32.4155 10.3187 35.5335 14.1647 35.5335H15.4548C19.3008 35.5335 22.4189 32.4155 22.4189 28.5694V23.2109C22.4189 23.0188 22.5746 22.8611 22.7687 22.8611H25.5127C25.7048 22.8611 25.8625 22.7054 25.8625 22.5113V19.1566C25.8625 18.9645 25.7068 18.8068 25.5127 18.8068L25.5187 18.8088Z" fill="#A14CFF"/>
<path d="M16.7247 25.9852V22.6306C16.7247 22.4385 16.569 22.2808 16.3749 22.2808H13.6309C13.4388 22.2808 13.2811 22.1251 13.2811 21.9309V19.1708C13.2811 18.9787 13.1254 18.821 12.9312 18.821H6.93373C5.33426 18.821 4.03608 17.5248 4.03608 15.9233V14.6332C4.03608 13.0338 5.33224 11.7356 6.93373 11.7356H10.8242C11.0163 11.7356 11.174 11.5799 11.174 11.3858V8.01696C11.174 7.82486 11.0183 7.66714 10.8242 7.66714H6.96406C3.11806 7.66714 0 10.7852 0 14.6312V15.9213C0 19.7673 3.11806 22.8854 6.96406 22.8854H12.3226C12.5147 22.8854 12.6724 23.0411 12.6724 23.2352V25.9791C12.6724 26.1712 12.8281 26.329 13.0222 26.329H16.3769C16.569 26.329 16.7267 26.1733 16.7267 25.9791L16.7247 25.9852Z" fill="#A14CFF"/>
<path d="M9.54828 17.1912H12.9029C13.095 17.1912 13.2527 17.0355 13.2527 16.8413V14.0974C13.2527 13.9053 13.4084 13.7476 13.6026 13.7476H16.3627C16.5548 13.7476 16.7125 13.5919 16.7125 13.3977V7.40022C16.7125 5.80075 18.0087 4.50258 19.6102 4.50258H20.9003C22.4997 4.50258 23.7979 5.79873 23.7979 7.40022V11.2907C23.7979 11.4828 23.9536 11.6405 24.1477 11.6405H27.5165C27.7086 11.6405 27.8664 11.4848 27.8664 11.2907V7.43056C27.8664 3.58455 24.7483 0.466492 20.9023 0.466492H19.6122C15.7662 0.466492 12.6481 3.58455 12.6481 7.43056V12.7891C12.6481 12.9812 12.4924 13.1389 12.2983 13.1389H9.55435C9.36225 13.1389 9.20453 13.2946 9.20453 13.4887V16.8434C9.20453 17.0355 9.36023 17.1932 9.55435 17.1932L9.54828 17.1912Z" fill="#A14CFF"/>
<path d="M39.4974 15.1307C39.4974 11.9641 41.9179 10.4981 46.9084 10.4981C49.1488 10.4981 50.8231 10.7367 52.825 11.1856V14.3238C51.1507 13.9942 49.4178 13.786 47.2663 13.786C44.4576 13.786 43.7701 14.1439 43.7701 14.9507C43.7701 15.9375 45.0541 16.2064 46.9367 16.445C49.8343 16.8029 53.8987 17.3408 53.8987 21.1969C53.8987 24.5131 51.1487 25.9771 46.0389 25.9771C43.7681 25.9771 42.0351 25.7688 39.8836 25.3503V22.1837C41.7359 22.483 43.5881 22.6609 45.8003 22.6609C48.4896 22.6609 49.626 22.303 49.626 21.4659C49.626 20.5701 48.6696 20.3901 46.3988 20.0322C44.0087 19.6743 39.4954 19.375 39.4954 15.1307H39.4974Z" fill="#31154E"/>
<path d="M63.2832 31.8351C61.7302 31.8351 60.2642 31.7158 58.2624 31.3862V28.2783C59.6374 28.4865 61.5199 28.6362 62.895 28.6362C66.3305 28.6362 67.3476 27.5604 67.3476 25.5585V24.4525H67.1393C66.2718 25.3786 64.9272 25.9771 62.7757 25.9771C58.3837 25.9771 56.4405 23.9449 56.4405 19.4033V10.767H60.7131V19.284C60.7131 21.5852 61.6392 22.6002 63.999 22.6002C66.3588 22.6002 67.3456 21.5831 67.3456 19.284V10.767H71.6182V24.6021C71.6182 29.6513 69.5274 31.8331 63.2812 31.8331L63.2832 31.8351Z" fill="#31154E"/>
<path d="M81.7489 10.5001C87.067 10.5001 89.3095 12.4413 89.3095 16.8939V25.7082H85.0368V17.0132C85.0368 14.8314 84.1107 13.8749 81.7509 13.8749C79.3912 13.8749 78.4044 14.8314 78.4044 17.0132V25.7082H74.1317V16.8939C74.1317 12.4413 76.3722 10.5001 81.7509 10.5001H81.7489Z" fill="#31154E"/>
<path d="M105.415 19.7329H95.764C96.1219 21.9148 97.4383 22.7216 100.186 22.7216C101.711 22.7216 104.489 22.4223 105.864 22.1837V25.2916C103.563 25.7405 101.472 25.9791 99.7677 25.9791C94.0311 25.9791 91.4003 23.7387 91.4003 18.4186V18.0607C91.4003 12.8315 94.029 10.5001 99.3795 10.5001C104.73 10.5001 107.059 13.1005 107.059 17.5531C107.059 19.4943 106.79 19.7349 105.415 19.7349V19.7329ZM102.726 16.8049C102.696 14.8637 101.59 13.7577 99.3795 13.7577C97.1693 13.7577 96.0329 14.6534 95.764 16.8049H102.726Z" fill="#31154E"/>
<path d="M113.544 16.0871V25.7082H109.272V16.0871C109.272 11.9337 110.677 10.5001 116.414 10.5001C117.52 10.5001 118.626 10.5607 119.701 10.7104V14.0569C118.684 13.9073 117.431 13.877 116.743 13.877C113.904 13.877 113.546 14.3845 113.546 16.0871H113.544Z" fill="#31154E"/>
<path d="M128.605 10.5001C134.072 10.5001 136.703 12.9508 136.703 18.18V24.7841C136.703 29.7139 134.612 31.8371 128.396 31.8371C126.813 31.8371 125.349 31.7178 123.376 31.3882V28.2216C124.72 28.4016 126.603 28.6099 127.978 28.6099C131.413 28.6099 132.43 27.6231 132.43 25.5626V24.4282H132.192C131.266 25.2047 130.01 25.9812 127.47 25.9812C122.868 25.9812 120.478 23.7993 120.478 18.4206V18.0627C120.478 12.8336 123.167 10.5021 128.607 10.5021L128.605 10.5001ZM128.605 22.6023C131.355 22.6023 132.43 21.4658 132.43 18.2993V18.18C132.43 15.0134 131.355 13.877 128.605 13.877C125.855 13.877 124.751 15.0114 124.751 18.18V18.2993C124.751 21.4658 125.885 22.6023 128.605 22.6023Z" fill="#31154E"/>
<path d="M152.898 19.7329H143.247C143.605 21.9148 144.921 22.7216 147.669 22.7216C149.192 22.7216 151.972 22.4223 153.347 22.1837V25.2916C151.046 25.7405 148.955 25.9791 147.25 25.9791C141.514 25.9791 138.883 23.7387 138.883 18.4186V18.0607C138.883 12.8315 141.512 10.5001 146.86 10.5001C152.208 10.5001 154.54 13.1005 154.54 17.5531C154.54 19.4943 154.271 19.7349 152.896 19.7349L152.898 19.7329ZM150.209 16.8049C150.178 14.8637 149.072 13.7577 146.862 13.7577C144.652 13.7577 143.516 14.6534 143.247 16.8049H150.209Z" fill="#31154E"/>
<path d="M167.72 22.2727V25.3806C166.286 25.7385 164.881 25.9791 163.447 25.9791C159.233 25.9791 157.739 24.6951 157.739 20.4508V14.1156H155.618V10.769H157.739V6.88458H162.012V10.769H167.599V14.1156H162.012V20.2405C162.012 22.0037 162.608 22.6023 164.282 22.6023C165.447 22.6023 166.375 22.5133 167.718 22.2727H167.72Z" fill="#31154E"/>
<path d="M169.275 6.34671C169.275 5.00202 170.171 4.16488 171.845 4.16488C173.519 4.16488 174.385 5.00202 174.385 6.34671V6.43568C174.385 7.75004 173.459 8.58718 171.845 8.58718C170.231 8.58718 169.275 7.75004 169.275 6.43568V6.34671ZM173.966 10.769V25.7102H169.693V10.769H173.966Z" fill="#31154E"/>
<path d="M184.394 10.5001C186.038 10.5001 187.801 10.7387 189.773 11.1876V14.4148C188.367 14.1459 186.066 13.877 184.782 13.877C181.735 13.877 180.449 14.9527 180.449 18.18V18.2993C180.449 21.5265 181.733 22.6023 184.782 22.6023C186.066 22.6023 188.367 22.3333 189.773 22.0644V25.2916C187.801 25.7405 186.038 25.9791 184.394 25.9791C178.866 25.9791 176.176 23.7083 176.176 18.4186V18.0607C176.176 12.7709 178.866 10.5001 184.394 10.5001Z" fill="#31154E"/>
<path d="M191.597 15.1307C191.597 11.9641 194.017 10.4981 199.008 10.4981C201.248 10.4981 202.922 10.7367 204.924 11.1856V14.3238C203.25 13.9942 201.519 13.786 199.368 13.786C196.559 13.786 195.871 14.1439 195.871 14.9507C195.871 15.9375 197.155 16.2064 199.038 16.445C201.936 16.8029 206 17.3408 206 21.1969C206 24.5131 203.25 25.9771 198.14 25.9771C195.869 25.9771 194.136 25.7688 191.985 25.3503V22.1837C193.837 22.483 195.689 22.6609 197.902 22.6609C200.591 22.6609 201.727 22.303 201.727 21.4659C201.727 20.5701 200.771 20.3901 198.5 20.0322C196.11 19.6743 191.597 19.375 191.597 15.1307Z" fill="#31154E"/>
</svg>
