<svg width="200" height="34" viewBox="0 0 200 34" fill="none" xmlns="http://www.w3.org/2000/svg">
<path d="M17.8066 9.02975V12.2029C17.8066 12.3846 17.9578 12.5338 18.1463 12.5338H20.8104C20.9969 12.5338 21.15 12.681 21.15 12.8647V15.4755C21.15 15.6572 21.3012 15.8064 21.4896 15.8064H27.3125C28.8654 15.8064 30.1258 17.0324 30.1258 18.5472V19.7675C30.1258 21.2804 28.8674 22.5084 27.3125 22.5084H23.5353C23.3488 22.5084 23.1957 22.6557 23.1957 22.8393V26.0258C23.1957 26.2075 23.3468 26.3567 23.5353 26.3567H27.2831C31.0171 26.3567 34.0444 23.4073 34.0444 19.7694V18.5491C34.0444 14.9112 31.0171 11.9619 27.2831 11.9619H22.0806C21.8941 11.9619 21.7409 11.8146 21.7409 11.631V9.03548C21.7409 8.85378 21.5898 8.70459 21.4013 8.70459H18.1443C17.9578 8.70459 17.8047 8.85187 17.8047 9.03548L17.8066 9.02975Z" fill="#A14CFF"/>
<path d="M24.773 17.3481H21.516C21.3295 17.3481 21.1764 17.4954 21.1764 17.679V20.2745C21.1764 20.4562 21.0252 20.6054 20.8368 20.6054H18.157C17.9705 20.6054 17.8173 20.7527 17.8173 20.9363V26.6093C17.8173 28.1222 16.5589 29.3502 15.0041 29.3502H13.7515C12.1986 29.3502 10.9383 28.1241 10.9383 26.6093V22.9293C10.9383 22.7476 10.7871 22.5984 10.5986 22.5984H7.32792C7.14141 22.5984 6.98828 22.7457 6.98828 22.9293V26.5806C6.98828 30.2185 10.0156 33.1679 13.7496 33.1679H15.0021C18.7361 33.1679 21.7634 30.2185 21.7634 26.5806V21.512C21.7634 21.3303 21.9146 21.1811 22.103 21.1811H24.7671C24.9536 21.1811 25.1067 21.0338 25.1067 20.8502V17.6771C25.1067 17.4954 24.9556 17.3462 24.7671 17.3462L24.773 17.3481Z" fill="#A14CFF"/>
<path d="M16.2357 24.136V20.9629C16.2357 20.7812 16.0846 20.632 15.8961 20.632H13.232C13.0455 20.632 12.8924 20.4847 12.8924 20.3011V17.6903C12.8924 17.5086 12.7412 17.3594 12.5528 17.3594H6.72988C5.17698 17.3594 3.9166 16.1334 3.9166 14.6185V13.3983C3.9166 11.8853 5.17502 10.6574 6.72988 10.6574H10.5071C10.6936 10.6574 10.8467 10.5101 10.8467 10.3265V7.13998C10.8467 6.95827 10.6956 6.80908 10.5071 6.80908H6.75933C3.02727 6.81673 0 9.76608 0 13.404V14.6243C0 18.2622 3.02727 21.2115 6.76129 21.2115H11.9638C12.1503 21.2115 12.3034 21.3588 12.3034 21.5424V24.1379C12.3034 24.3196 12.4546 24.4688 12.6431 24.4688H15.9C16.0865 24.4688 16.2397 24.3216 16.2397 24.1379L16.2357 24.136Z" fill="#A14CFF"/>
<path d="M9.26738 15.8178H12.5243C12.7108 15.8178 12.864 15.6706 12.864 15.487V12.8914C12.864 12.7097 13.0151 12.5606 13.2036 12.5606H15.8834C16.0699 12.5606 16.223 12.4133 16.223 12.2297V6.55666C16.223 5.04373 17.4814 3.81579 19.0363 3.81579H20.2888C21.8417 3.81579 23.1021 5.04182 23.1021 6.55666V10.2367C23.1021 10.4184 23.2533 10.5675 23.4418 10.5675H26.7125C26.899 10.5675 27.0521 10.4203 27.0521 10.2367V6.58535C27.0442 2.94935 24.017 0 20.2829 0H19.0304C15.2964 0 12.2691 2.94935 12.2691 6.58726V11.6559C12.2691 11.8376 12.118 11.9867 11.9295 11.9867H9.26542C9.07891 11.9867 8.92578 12.134 8.92578 12.3176V15.4908C8.92578 15.6725 9.07695 15.8217 9.26542 15.8217L9.26738 15.8178Z" fill="#A14CFF"/>
<path d="M38.3457 13.8688C38.3457 10.8735 40.6957 9.48682 45.5409 9.48682C47.7161 9.48682 49.3417 9.71251 51.2852 10.1371V13.1056C49.6597 12.7938 47.9772 12.5968 45.8884 12.5968C43.1615 12.5968 42.494 12.9354 42.494 13.6985C42.494 14.6319 43.7406 14.8863 45.5684 15.112C48.3816 15.4505 52.3277 15.9593 52.3277 19.6068C52.3277 22.7436 49.6577 24.1284 44.6967 24.1284C42.492 24.1284 40.8095 23.9314 38.7207 23.5354V20.5402C40.519 20.8233 42.3173 20.9916 44.465 20.9916C47.0761 20.9916 48.1794 20.653 48.1794 19.8612C48.1794 19.0139 47.2508 18.8436 45.0461 18.5051C42.7256 18.1665 38.3438 17.8835 38.3438 13.8688H38.3457Z" fill="#31154E"/>
<path d="M61.4404 29.6694C59.9326 29.6694 58.5093 29.5565 56.5657 29.2448V26.305C57.9007 26.502 59.7285 26.6435 61.0634 26.6435C64.3989 26.6435 65.3864 25.626 65.3864 23.7324V22.6862H65.1842C64.342 23.5622 63.0365 24.1284 60.9476 24.1284C56.6835 24.1284 54.7969 22.2061 54.7969 17.9103V9.74121H58.9451V17.7974C58.9451 19.974 59.8443 20.9342 62.1354 20.9342C64.4264 20.9342 65.3845 19.9721 65.3845 17.7974V9.74121H69.5327V22.8278C69.5327 27.6037 67.5028 29.6675 61.4384 29.6675L61.4404 29.6694Z" fill="#31154E"/>
<path d="M79.3661 9.48877C84.5294 9.48877 86.7066 11.3249 86.7066 15.5367V23.874H82.5583V15.6495C82.5583 13.5857 81.6591 12.681 79.3681 12.681C77.077 12.681 76.119 13.5857 76.119 15.6495V23.874H71.9707V15.5367C71.9707 11.3249 74.1459 9.48877 79.3681 9.48877H79.3661Z" fill="#31154E"/>
<path d="M102.345 18.2221H92.9749C93.3224 20.2858 94.6004 21.049 97.2684 21.049C98.7487 21.049 101.446 20.7659 102.781 20.5402V23.48C100.547 23.9046 98.517 24.1303 96.862 24.1303C91.2924 24.1303 88.7383 22.0111 88.7383 16.9788V16.6403C88.7383 11.6941 91.2905 9.48877 96.4851 9.48877C101.68 9.48877 103.941 11.9485 103.941 16.1602C103.941 17.9964 103.68 18.224 102.345 18.224V18.2221ZM99.7342 15.4525C99.7048 13.6163 98.6309 12.5701 96.4851 12.5701C94.3393 12.5701 93.236 13.4174 92.9749 15.4525H99.7342Z" fill="#31154E"/>
<path d="M110.236 14.7735V23.874H106.088V14.7735C106.088 10.8449 107.452 9.48877 113.022 9.48877C114.096 9.48877 115.17 9.54615 116.214 9.68769V12.8532C115.227 12.7116 114.009 12.6829 113.342 12.6829C110.586 12.6829 110.238 13.163 110.238 14.7735H110.236Z" fill="#31154E"/>
<path d="M124.859 9.48877C130.167 9.48877 132.722 11.8069 132.722 16.7531V22.9999C132.722 27.663 130.692 29.6713 124.657 29.6713C123.119 29.6713 121.698 29.5585 119.782 29.2467V26.2515C121.088 26.4217 122.915 26.6187 124.25 26.6187C127.586 26.6187 128.573 25.6853 128.573 23.7363V22.6633H128.342C127.442 23.3978 126.223 24.1322 123.758 24.1322C119.289 24.1322 116.969 22.0684 116.969 16.9807V16.6422C116.969 11.696 119.58 9.49068 124.861 9.49068L124.859 9.48877ZM124.859 20.9361C127.529 20.9361 128.573 19.8612 128.573 16.866V16.7531C128.573 13.7579 127.529 12.6829 124.859 12.6829C122.189 12.6829 121.117 13.756 121.117 16.7531V16.866C121.117 19.8612 122.218 20.9361 124.859 20.9361Z" fill="#31154E"/>
<path d="M148.445 18.2221H139.075C139.422 20.2858 140.7 21.049 143.368 21.049C144.846 21.049 147.546 20.7659 148.881 20.5402V23.48C146.647 23.9046 144.617 24.1303 142.962 24.1303C137.392 24.1303 134.838 22.0111 134.838 16.9788V16.6403C134.838 11.6941 137.39 9.48877 142.583 9.48877C147.775 9.48877 150.039 11.9485 150.039 16.1602C150.039 17.9964 149.778 18.224 148.443 18.224L148.445 18.2221ZM145.834 15.4525C145.804 13.6163 144.731 12.5701 142.585 12.5701C140.439 12.5701 139.336 13.4174 139.075 15.4525H145.834Z" fill="#31154E"/>
<path d="M162.836 20.6243V23.5641C161.444 23.9027 160.079 24.1303 158.687 24.1303C154.596 24.1303 153.145 22.9157 153.145 18.901V12.9086H151.086V9.7431H153.145V6.06885H157.294V9.7431H162.718V12.9086H157.294V18.7021C157.294 20.3699 157.873 20.9361 159.498 20.9361C160.629 20.9361 161.53 20.8519 162.834 20.6243H162.836Z" fill="#31154E"/>
<path d="M164.344 5.56012C164.344 4.28819 165.213 3.49634 166.839 3.49634C168.465 3.49634 169.305 4.28819 169.305 5.56012V5.64427C169.305 6.88752 168.406 7.67936 166.839 7.67936C165.272 7.67936 164.344 6.88752 164.344 5.64427V5.56012ZM168.898 9.74314V23.8759H164.75V9.74314H168.898Z" fill="#31154E"/>
<path d="M179.023 9.48877C180.619 9.48877 182.331 9.71447 184.246 10.1391V13.1917C182.881 12.9373 180.647 12.6829 179.4 12.6829C176.442 12.6829 175.193 13.7005 175.193 16.7531V16.866C175.193 19.9186 176.44 20.9361 179.4 20.9361C180.647 20.9361 182.881 20.6818 184.246 20.4274V23.48C182.331 23.9046 180.619 24.1303 179.023 24.1303C173.656 24.1303 171.045 21.9824 171.045 16.9788V16.6403C171.045 11.6367 173.656 9.48877 179.023 9.48877Z" fill="#31154E"/>
<path d="M186.016 13.8688C186.016 10.8735 188.366 9.48682 193.211 9.48682C195.386 9.48682 197.012 9.71251 198.955 10.1371V13.1056C197.33 12.7938 195.649 12.5968 193.56 12.5968C190.833 12.5968 190.166 12.9354 190.166 13.6985C190.166 14.6319 191.412 14.8863 193.24 15.112C196.054 15.4505 200 15.9593 200 19.6068C200 22.7436 197.33 24.1284 192.369 24.1284C190.164 24.1284 188.481 23.9314 186.393 23.5354V20.5402C188.191 20.8233 189.989 20.9916 192.137 20.9916C194.748 20.9916 195.851 20.653 195.851 19.8612C195.851 19.0139 194.923 18.8436 192.718 18.5051C190.398 18.1665 186.016 17.8835 186.016 13.8688Z" fill="#31154E"/>
</svg>
